# xmcd
#
# Track frame offsets: 
#        150
#        12508
#        28999
#        43013
#        55317
#        67853
#        82194
#        97171
#        108881
#        123625
#        137952
#        151798
#        166231
#        180251
#        193199
#        206760
#        219975
#        233453
#        247087
#        260699
#        275623
#        290102
#        305164
#        317661
#
# Disc length: 4428 seconds
#
# Revision: 2
# Processed by: cddbd v1.5.2PL0 Copyright (c) Steve Scherf et al.
# Submitted via: ExactAudioCopy v1.3
#
DISCID=6d114a18
DTITLE=Various Artist - The Rough Guide to Unsung Heroes of Country Blues
DYEAR=2015
DGENRE=Blues
TTITLE0=Henry Bash - Fishing Blues
TTITLE1=Willie Harris - Never Drive A Stranger From Your Door
TTITLE2=Clifford Gibson - Don't Put That Thing On Me
TTITLE3=Henry Spaulding - Cairo Blues
TTITLE4=Charley Jordan - Keep It Clean
TTITLE5=Gus Cannon - Poor Boy, Long Ways From Home
TTITLE6=Lane Hardin - California Desert Blues
TTITLE7=Otto Virgial - Little Girl In Rome
TTITLE8=Blind Willie (Joe) Reynolds - Married Man Blues
TTITLE9=Joe Callicott - Fare Thee Well Blues
TTITLE10=Sam Collins - Lonesome Road Blues
TTITLE11=Geeshie Wiley and Elvie Thomas - Pick Poor Robin Clean
TTITLE12=King Solomon Hill - My Buddy Blind Papa Lemon
TTITLE13=Kokomo Arnold - Old Original Kokomo Blues
TTITLE14=Tom Dickson - Labor Blues
TTITLE15=Texas Alexander - Section Gang Blues
TTITLE16=Freddie Spruell - Let's Go Riding
TTITLE17=Hambone Willie Newbern - Roll And Tumble Blues
TTITLE18=Peg Leg Howell - Please Ma'am
TTITLE19=Garfield Akers - Cottonfield Blues, Part 2
TTITLE20=Frank Stokes - Tain't Nobody's Business If I Do, Part 2 (Take
TTITLE20=1)
TTITLE21=Lottie Kimbrough - Rolling Log Blues
TTITLE22=Sam Butler (Bo Weavil Jackson) - You Can't Keep No Brown
TTITLE23=Mississippi Bracey - Cherry Ball
EXTD=
EXTT0=
EXTT1=
EXTT2=
EXTT3=
EXTT4=
EXTT5=
EXTT6=
EXTT7=
EXTT8=
EXTT9=
EXTT10=
EXTT11=
EXTT12=
EXTT13=
EXTT14=
EXTT15=
EXTT16=
EXTT17=
EXTT18=
EXTT19=
EXTT20=
EXTT21=
EXTT22=
EXTT23=
PLAYORDER=
